<svg xmlns="http://www.w3.org/2000/svg" width="24" height="24" viewBox="0 0 24 24">
    <symbol id="magnify" viewBox="0 0 24 24">
        <path
            d="M15.5 14h-.79l-.28-.27A6.471 6.471 0 0 0 16 9.5 6.5 6.5 0 1 0 9.5 16c1.61 0 3.09-.59 4.23-1.57l.27.28v.79l5 4.99L20.49 19l-4.99-5zm-6 0C7.01 14 5 11.99 5 9.5S7.01 5 9.5 5 14 7.01 14 9.5 11.99 14 9.5 14z"
        />
    </symbol>
    <symbol id="cross" viewBox="0 0 24 24">
        <path
            d="M19 6.41L17.59 5 12 10.59 6.41 5 5 6.41 10.59 12 5 17.59 6.41 19 12 13.41 17.59 19 19 17.59 13.41 12z"
        />
    </symbol>
    <symbol id="csv" viewBox="0 0 16.9 16.9">
        <style type="text/css">
path{ fill:#000;stroke:none;stroke-width:.264583;stroke-linecap:round;stroke-linejoin:round;stroke-miterlimit:10 }
       </style>
        <path
            d="M4.4 13.4h1.4q0 .9-.7 1.4-.7.6-1.7.6-1.2 0-1.8-.8-.6-.7-.7-2v-.3q0-1.3.7-2 .7-.8 1.8-.8 1 0 1.7.5.6.6.7 1.5H4.4q0-.5-.3-.7-.2-.3-.7-.3-.6 0-.8.4-.3.4-.3 1.3v.4q0 .9.3 1.3.2.4.8.4 1 0 1-1zm5 .4q0-.3-.2-.5l-.8-.4-1.1-.4-.7-.6-.2-.8q0-.8.6-1.2.7-.4 1.6-.4 1 0 1.6.4.6.5.6 1.3H9.4q0-.3-.2-.5t-.6-.2q-.4 0-.6.2l-.2.4q0 .2.3.4l.8.4q.9.3 1.4.7.5.4.5 1.2 0 .7-.6 1.2-.6.4-1.5.4l-1.2-.2q-.6-.2-1-.7-.3-.4-.3-1h1.4q0 .4.3.6.3.2.8.2l.5-.1.2-.4z"/>
        <path d="m16.6 9-2 6.2c-.5 1.4-1 1.8-1.5 0l-2-6.3 1.4-.5 1.4 5.2 1.4-5.1Z"/>
        <path d="M1 1.1h3.4v1.1H1z"/>
        <path d="M1 3h3.4v1.1H1zm0 1.9h3.4V6H1zm0 1.8h3.4v1.1H1z"/>
        <path d="M5.7 1.1h5.7v1.1H5.7zm0 1.9h5.7v1.1H5.7zm0 1.9h5.7V6H5.7zm0 1.8h5.7v1.1H5.7z"/>
        <path d="M12.9 1h2v1.2h-2zm0 2h2v1.2h-2zm0 1.9h2v1.2h-2zm0 1.8h2v1.2h-2z"/>
    </symbol>
    <symbol id="excel" viewBox="0 0 2080 2080">
        <style type="text/css">
.st0{fill:#FFFFFF;}
.st1{fill:#217346;}
.st2{fill-rule:evenodd;clip-rule:evenodd;fill:#217346;}
        </style>

        <g id="_48">
            <rect x="1040" y="297.1" class="st0" width="941" height="1436.2"/>
            <path class="st1"
                d="M1981,297.1v1436.2h-941V297.1H1981 M1981,198.1h-941c-54.7,0-99,44.3-99,99v1436.2c0,54.7,44.3,99,99,99h941 c54.7,0,99-44.3,99-99V297.1C2080,242.4,2035.7,198.1,1981,198.1z"/>
            <rect x="1485.7" y="445.7" class="st1" width="346.7" height="148.6"/>
            <rect x="1485.7" y="693.3" class="st1" width="346.7" height="148.6"/>
            <rect x="1485.7" y="941" class="st1" width="346.7" height="148.6"/>
            <rect x="1485.7" y="1188.6" class="st1" width="346.7" height="148.6"/>
            <rect x="1485.7" y="1436.2" class="st1" width="346.7" height="148.6"/>
            <rect x="1040" y="445.7" class="st1" width="346.7" height="148.6"/>
            <rect x="1040" y="693.3" class="st1" width="346.7" height="148.6"/>
            <rect x="1040" y="941" class="st1" width="346.7" height="148.6"/>
            <rect x="1040" y="1188.6" class="st1" width="346.7" height="148.6"/>
            <rect x="1040" y="1436.2" class="st1" width="346.7" height="148.6"/>
            <path class="st2" d="M1238.1,0L0,216.9v1646.2L1238.1,2080V0z"/>
            <path class="st0" d="M884.5,594.3l-172.8,10.4L606.2,852.3l-6.9,22.3l-5,16.8l-4.5,16.3l-3.5,13.4l0,0c0-6.6-1.5-12.9-4.5-18.8 l-4.5-17.3l-5-16.3l-5.4-14.9l-90.6-235.2L309.5,629l177.8,385.3l-196.6,385.3l162.9,9.9l109.4-252.6l5-17.3l4-15.4l3.5-12.9v-10.4 l0,0l3.5,18.3l3.5,15.4l3,11.9l3,8.4l113.9,269.4l189.2,11.9l-213-424.4L884.5,594.3"/>
        </g>
    </symbol>

</svg>
